<svg width="25" height="25" viewBox="0 0 25 25" fill="none" xmlns="http://www.w3.org/2000/svg">
<path d="M20.7259 3.1172L15.1051 0.618327C13.2517 -0.206109 11.0372 -0.206109 9.18383 0.618327L3.55977 3.1172C1.36447 4.09182 0 6.06983 0 8.27471V16.0078C0 18.2127 1.36447 20.1907 3.55977 21.1653L9.18383 23.6642C10.1041 24.0732 11.1107 24.2777 12.1173 24.2809C12.1269 24.2809 12.1333 24.2873 12.1428 24.2873C12.1524 24.2873 12.1588 24.2841 12.1684 24.2809C13.1782 24.2777 14.1848 24.0732 15.1019 23.6642L20.7259 21.1653C22.9212 20.1907 24.2857 18.2127 24.2857 16.0078V8.27471C24.2857 6.06983 22.9212 4.09182 20.7259 3.1172ZM9.7015 1.78787C10.4652 1.44915 11.3056 1.2766 12.1428 1.2766C12.9801 1.2766 13.8205 1.44596 14.5842 1.78787L20.2051 4.28355C20.7771 4.53919 21.2692 4.88111 21.6846 5.28054L17.8915 6.96456L7.96635 2.55799L9.7015 1.78787ZM4.08064 4.28355L6.39097 3.2578L16.3194 7.66757L13.8109 8.78279C12.8075 9.23016 11.4814 9.23016 10.478 8.78279L2.60113 5.28374C3.01334 4.8843 3.50545 4.53919 4.08064 4.28675V4.28355ZM4.08064 19.9958C2.35188 19.2288 1.27819 17.6982 1.27819 16.0078V8.27471C1.27819 7.58129 1.46673 6.91983 1.79586 6.32547L9.95714 9.95234C10.4333 10.1632 10.9637 10.2751 11.5038 10.339V22.9388C10.8838 22.8749 10.2703 22.7471 9.7015 22.4946L4.07744 19.9958H4.08064ZM23.0075 16.0078C23.0075 17.7014 21.9338 19.2288 20.2051 19.9958L14.581 22.4946C14.0122 22.7471 13.3987 22.8749 12.7788 22.9388V10.339C13.3188 10.2783 13.8492 10.1632 14.3254 9.95234L22.4866 6.32547C22.8158 6.92302 23.0043 7.58449 23.0043 8.27471V16.0078H23.0075Z" fill="black"/>
</svg>
