<svg width="20" height="25" viewBox="0 0 20 25" fill="none" xmlns="http://www.w3.org/2000/svg">
<path d="M9.58646 12.7819C13.1111 12.7819 15.9774 9.9156 15.9774 6.39097C15.9774 2.86635 13.1111 0 9.58646 0C6.06184 0 3.19549 2.86635 3.19549 6.39097C3.19549 9.9156 6.06184 12.7819 9.58646 12.7819ZM9.58646 1.27819C12.4049 1.27819 14.6992 3.57255 14.6992 6.39097C14.6992 9.20939 12.4049 11.5038 9.58646 11.5038C6.76804 11.5038 4.47368 9.20939 4.47368 6.39097C4.47368 3.57255 6.76804 1.27819 9.58646 1.27819ZM19.1729 19.7705V21.0615C19.1729 22.1767 18.7639 23.2472 18.0257 24.0716C17.8979 24.2122 17.7254 24.2857 17.5496 24.2857C17.3962 24.2857 17.246 24.2314 17.1246 24.1227C16.8626 23.8863 16.8402 23.4836 17.0735 23.2216C17.6039 22.6304 17.8947 21.8635 17.8947 21.0646V19.7737C17.8947 17.6934 16.5111 15.8912 14.5299 15.3927C14.1272 15.2904 13.6927 15.3479 13.3412 15.5492C11.0116 16.8434 8.15808 16.8402 5.83815 15.5492C5.48026 15.3447 5.04887 15.2904 4.64304 15.3895C2.66184 15.888 1.27819 17.6902 1.27819 19.7705V21.0615C1.27819 21.8635 1.56898 22.6272 2.09943 23.2184C2.3359 23.4804 2.31353 23.8863 2.04831 24.1195C1.78628 24.3528 1.38365 24.3336 1.14718 24.0684C0.409022 23.244 0 22.1735 0 21.0583V19.7673C0 17.099 1.77989 14.7887 4.32988 14.1464C5.04887 13.9643 5.82857 14.0665 6.46447 14.4308C8.39135 15.5045 10.7752 15.5077 12.7148 14.4308C13.3444 14.0697 14.1241 13.9675 14.843 14.1496C17.393 14.7919 19.1729 17.1022 19.1729 19.7705Z" fill="black"/>
</svg>
