<svg width="25" height="25" viewBox="0 0 25 25" fill="none" xmlns="http://www.w3.org/2000/svg">
<path d="M18.5338 0H5.75188C2.57876 0 0 2.57876 0 5.75188V18.5338C0 21.7069 2.57876 24.2857 5.75188 24.2857H18.5338C21.7069 24.2857 24.2857 21.7069 24.2857 18.5338V5.75188C24.2857 2.57876 21.7069 0 18.5338 0ZM19.1729 12.7819H23.0075V16.6165H19.1729V12.7819ZM19.1729 7.66917H23.0075V11.5038H19.1729V7.66917ZM23.0075 5.75188V6.39097H19.1729V1.3421C21.3363 1.65526 23.0075 3.50225 23.0075 5.75188ZM17.8947 1.27819V11.5038H6.39097V1.27819H17.8947ZM5.11278 16.6165H1.27819V12.7819H5.11278V16.6165ZM1.27819 11.5038V7.66917H5.11278V11.5038H1.27819ZM5.11278 1.3421V6.39097H1.27819V5.75188C1.27819 3.50545 2.94943 1.65526 5.11278 1.3421ZM1.27819 18.5338V17.8947H5.11278V22.9436C2.94943 22.6304 1.27819 20.7834 1.27819 18.5338ZM6.39097 23.0075V12.7819H17.8947V23.0075H6.39097ZM19.1729 22.9436V17.8947H23.0075V18.5338C23.0075 20.7803 21.3363 22.6304 19.1729 22.9436Z" fill="black"/>
</svg>
