<svg width="40" height="40" viewBox="0 0 40 40" fill="none" xmlns="http://www.w3.org/2000/svg">
<path d="M38.7543 35.5255C38.7543 35.5255 39.1377 35.5207 39.3933 35.7105C39.3933 35.7105 40.1558 34.1612 37.4179 31.4045C37.4179 31.4045 37.7969 31.234 38.2942 31.3997C38.2942 31.3997 38.2171 29.0393 35.375 26.8793C35.375 26.8793 35.7931 26.7259 36.0016 26.805C36.0016 26.805 34.8981 24.697 32.0276 23.5699C32.326 23.4149 32.6575 23.3346 32.9937 23.3358C32.9937 23.3358 30.8525 20.7908 27.1325 21.0117C27.1325 21.0117 27.3282 20.7844 27.7264 20.6423C27.7264 20.6423 27.1273 20.2353 25.6955 20.0575C24.9338 19.8878 23.9685 19.8435 23.9685 19.8435C24.2796 19.8347 24.9314 19.6513 25.3117 19.5367C26.8829 19.3682 28.4026 18.962 29.1355 18.0797C29.1355 18.0797 28.8196 18.1807 28.3683 17.7482C28.3683 17.7482 31.6238 17.4355 33.9998 14.3153C33.9998 14.3153 33.1787 14.6424 32.6886 14.299C32.6886 14.299 35.6374 13.1171 36.3383 10.9568C36.3383 10.9568 35.7792 11.3162 35.1281 11.2388C35.1281 11.2388 36.9302 9.99542 37.6044 7.85423C37.6044 7.85423 37.05 8.14938 36.6143 7.97405C36.6143 7.97405 38.6912 6.49626 38.4116 4.28398C38.4116 4.28398 38.0845 4.78603 37.4027 4.61069C37.4027 4.61069 39.5735 2.24064 38.6576 0.0111868C38.6576 0.0111868 37.0473 -0.197301 35.5882 1.18583C35.5882 1.18583 35.5835 0.802401 35.7732 0.546784C35.7732 0.546784 34.2243 -0.215673 31.4672 2.52222C31.4672 2.52222 31.2967 2.14319 31.4624 1.64594C31.4624 1.64594 29.102 1.72302 26.942 4.56516C26.942 4.56516 26.7886 4.14699 26.8677 3.9385C26.8677 3.9385 24.7597 5.04204 23.6326 7.91254C23.4776 7.61415 23.3974 7.2826 23.3989 6.94639C23.3989 6.94639 20.8487 9.08598 21.0704 12.806C21.0704 12.806 20.8432 12.6103 20.701 12.2121C20.701 12.2121 20.403 12.6514 20.2053 13.6743C20.0116 14.5734 19.9201 15.8311 19.9201 15.8311C19.9253 15.1613 19.5731 13.9902 19.4301 13.5429C19.2176 12.2724 18.8118 11.1221 18.0809 10.5142C18.0809 10.5142 18.1819 10.8298 17.7494 11.2815C17.7494 11.2815 17.4367 8.02557 14.3165 5.64993C14.3165 5.64993 14.6436 6.4711 14.3002 6.96157C14.3002 6.96157 13.1183 4.01279 10.958 3.31144C10.958 3.31144 11.3174 3.8706 11.24 4.52202C11.24 4.52202 9.99661 2.71953 7.85543 2.04574C7.85543 2.04574 8.15058 2.59971 7.97525 3.03585C7.97525 3.03585 6.49746 0.960963 4.28518 1.24054C4.28518 1.24054 4.78723 1.56725 4.61189 2.24943C4.61069 2.25143 2.24064 0.0786856 0.0111868 0.997308C0.0111868 0.997308 -0.197301 2.60769 1.18583 4.06671C1.18583 4.06671 0.8024 4.0715 0.546784 3.88218C0.546784 3.88218 -0.215673 5.43106 2.52222 8.18773C2.52222 8.18773 2.14319 8.35827 1.64594 8.19252C1.64594 8.19252 1.72302 10.553 4.56516 12.7133C4.56516 12.7133 4.14699 12.8663 3.9385 12.7872C3.9385 12.7872 5.04204 14.8953 7.91254 16.0224C7.61389 16.1768 7.28221 16.2565 6.94599 16.2544C6.94599 16.2544 9.08718 18.7998 12.8072 18.5785C12.8072 18.5785 12.6115 18.8058 12.2133 18.948C12.2133 18.948 12.4977 19.1405 13.1391 19.3186C13.9886 19.6382 16.8064 19.7416 16.8064 19.7416C16.3707 19.8151 15.728 19.9936 15.061 20.1985C13.3564 20.3403 11.6413 20.7373 10.8485 21.6923C10.8485 21.6923 11.1641 21.5912 11.6158 22.0238C11.6158 22.0238 8.35987 22.3365 5.98423 25.4566C5.98423 25.4566 6.8054 25.1295 7.29586 25.473C7.29586 25.473 4.34709 26.6548 3.64574 28.8148C3.64574 28.8148 4.2049 28.4553 4.85632 28.5352C4.85632 28.5352 3.05382 29.7786 2.38003 31.9197C2.38003 31.9197 2.934 31.6242 3.37015 31.7999C3.37015 31.7999 1.29326 33.2777 1.57285 35.49C1.57285 35.49 1.89956 34.9879 2.58173 35.1633C2.58173 35.1633 0.410588 37.5333 1.32641 39.7628C1.32641 39.7628 2.9368 39.9713 4.39581 38.5881C4.39581 38.5881 4.40061 38.9716 4.21129 39.2272C4.21129 39.2272 5.76017 39.9896 8.51683 37.2517C8.51683 37.2517 8.68738 37.6308 8.52163 38.128C8.52163 38.128 10.8821 38.0506 13.0424 35.2084C13.0424 35.2084 13.1954 35.627 13.1163 35.8355C13.1163 35.8355 15.2244 34.7319 16.3515 31.861C16.5065 32.1595 16.5867 32.4912 16.5851 32.8276C16.5851 32.8276 19.1305 30.6864 18.9093 26.9664C18.9093 26.9664 19.1365 27.1621 19.2787 27.5603C19.2787 27.5603 20.0447 26.4304 19.9333 23.5751C20.0871 24.1678 20.2484 24.7389 20.397 25.2418C20.5648 26.817 20.9706 28.3423 21.8548 29.076C21.8548 29.076 21.7538 28.7601 22.1863 28.3084C22.1863 28.3084 22.4991 31.5643 25.6192 33.9399C25.6192 33.9399 25.2925 33.1187 25.6356 32.6287C25.6356 32.6287 26.8174 35.5775 28.9778 36.2784C28.9778 36.2784 28.6183 35.7192 28.6958 35.0682C28.6958 35.0682 29.9391 36.8703 32.0803 37.5445C32.0803 37.5445 31.7851 36.9905 31.9605 36.5548C31.9605 36.5548 33.4383 38.6293 35.6505 38.3521C35.6505 38.3521 35.1485 38.025 35.3238 37.3432C35.3238 37.3432 37.6939 39.514 39.9233 38.5981C39.9289 38.5949 40.1374 36.9834 38.7543 35.5255ZM19.9529 20.6742C15.2232 23.6733 5.77734 34.1376 5.77734 34.1376C7.1353 30.7615 14.4879 22.6225 19.4596 19.8291C16.4122 15.0806 6.03096 5.71024 6.03096 5.71024C9.40271 7.06821 17.5161 14.3936 20.3247 19.3646C25.3811 16.4889 34.4515 5.71623 34.4515 5.71623C34.029 8.37664 25.3105 17.6184 20.7721 20.1993C23.595 25.2438 34.4539 34.3872 34.4539 34.3872C31.7871 33.9619 22.5071 25.2034 19.9529 20.6742Z" fill="url(#paint0_linear_3195_705)"/>
<defs>
<linearGradient id="paint0_linear_3195_705" x1="0.556369" y1="0.450927" x2="39.3151" y2="39.2092" gradientUnits="userSpaceOnUse">
<stop offset="0.2" stop-color="#00FF85"/>
<stop offset="1" stop-color="#00E0FF"/>
</linearGradient>
</defs>
</svg>
