<svg width="25" height="24" viewBox="0 0 25 24" fill="none" xmlns="http://www.w3.org/2000/svg">
<path d="M24.1689 8.63101C23.8909 7.76503 23.1528 7.14511 22.2421 7.01409L16.733 6.22481L14.2725 1.31015C13.8667 0.501692 13.0518 0 12.1411 0C11.2304 0 10.4124 0.501692 10.0097 1.31015L7.54921 6.22481L2.04019 7.01409C1.12948 7.14511 0.391324 7.76503 0.113316 8.63101C-0.161495 9.4874 0.0717751 10.4077 0.723654 11.034L4.70523 14.8558L3.76576 20.2498C3.61237 21.1318 3.96707 22.0073 4.69245 22.541C5.43061 23.0842 6.39884 23.1577 7.21369 22.7359L12.1411 20.1827L17.0686 22.7359C17.4201 22.918 17.8003 23.0075 18.1742 23.0075C18.6727 23.0075 19.168 22.8509 19.5898 22.541C20.3152 22.0073 20.6699 21.1318 20.5165 20.2498L19.577 14.8558L23.5586 11.034C24.2105 10.4077 24.4438 9.4874 24.1689 8.63101ZM22.6735 10.1137L18.449 14.172C18.2956 14.319 18.2253 14.5331 18.2605 14.744L19.2575 20.4735C19.3278 20.8793 19.168 21.266 18.8325 21.5152C18.481 21.7709 18.0432 21.806 17.6533 21.6047L12.4319 18.8981C12.3392 18.8502 12.2402 18.8278 12.1379 18.8278C12.0357 18.8278 11.9366 18.8502 11.8439 18.8981L6.62252 21.6047C6.23587 21.806 5.79489 21.7709 5.44339 21.5152C5.10786 21.2692 4.94809 20.8793 5.01839 20.4735L6.01538 14.744C6.05053 14.5331 5.98023 14.319 5.82685 14.172L1.60561 10.1137C1.30523 9.82293 1.19978 9.4171 1.3276 9.02405C1.45862 8.62142 1.79095 8.34342 2.21914 8.2827L8.0573 7.44548C8.265 7.41672 8.44395 7.28571 8.53981 7.10037L11.1505 1.88534C11.5276 1.1312 12.7515 1.1312 13.1285 1.88534L15.7392 7.10037C15.8319 7.2889 16.0141 7.41672 16.2218 7.44548L22.0599 8.2827C22.4881 8.34342 22.8204 8.62142 22.9515 9.02405C23.0793 9.4171 22.9738 9.82612 22.6735 10.1137Z" fill="black"/>
</svg>
