<svg width="25" height="22" viewBox="0 0 25 22" fill="none" xmlns="http://www.w3.org/2000/svg">
<path d="M12.1428 11.5038C15.316 11.5038 17.8947 8.92499 17.8947 5.75188C17.8947 2.57876 15.316 0 12.1428 0C8.96973 0 6.39097 2.57876 6.39097 5.75188C6.39097 8.92499 8.96973 11.5038 12.1428 11.5038ZM12.1428 1.27819C14.6098 1.27819 16.6165 3.28496 16.6165 5.75188C16.6165 8.21879 14.6098 10.2256 12.1428 10.2256C9.67593 10.2256 7.66917 8.21879 7.66917 5.75188C7.66917 3.28496 9.67593 1.27819 12.1428 1.27819ZM20.4511 17.7669V18.8725C20.4511 19.8504 20.0932 20.7898 19.4445 21.5152C19.3167 21.6558 19.141 21.7293 18.9684 21.7293C18.815 21.7293 18.6648 21.675 18.5434 21.5663C18.2814 21.3299 18.259 20.9272 18.4923 20.6652C18.9333 20.1731 19.1729 19.5404 19.1729 18.8757V17.7701C19.1729 16.0286 18.0162 14.5203 16.3577 14.1017C16.035 14.0186 15.6866 14.0633 15.4054 14.2263C13.3795 15.3511 10.8966 15.3479 8.88345 14.2263C8.59586 14.0633 8.25075 14.0154 7.92481 14.0985C6.26635 14.5139 5.10958 16.0222 5.10958 17.7669V18.8725C5.10958 19.5372 5.35244 20.1699 5.79022 20.662C6.02349 20.924 6.00112 21.3299 5.73909 21.5631C5.47706 21.7964 5.07443 21.7772 4.83797 21.512C4.18928 20.7866 3.83139 19.8472 3.83139 18.8693V17.7637C3.83139 15.4342 5.38759 13.4178 7.61165 12.8554C8.25394 12.6925 8.94097 12.7851 9.50977 13.1079C11.1299 14.009 13.143 14.0122 14.7759 13.1079C15.3351 12.7883 16.0286 12.6989 16.6677 12.8586C18.8917 13.4178 20.4479 15.4374 20.4479 17.7669H20.4511ZM19.2081 0.645488C19.3263 0.313158 19.6906 0.143797 20.0229 0.255639C21.806 0.88515 23.0043 2.58195 23.0043 4.47368C23.0043 5.74548 22.4611 6.95977 21.512 7.80657C21.3906 7.91522 21.2372 7.96954 21.087 7.96954C20.9113 7.96954 20.7355 7.89924 20.6109 7.75545C20.3776 7.49342 20.4 7.08759 20.662 6.85432C21.3395 6.25037 21.7261 5.3812 21.7261 4.47368C21.7261 3.12199 20.8697 1.9109 19.5947 1.46034C19.2624 1.3421 19.0866 0.977819 19.2049 0.645488H19.2081ZM24.2857 14.4883V15.4118C24.2857 15.7665 24.0013 16.0509 23.6466 16.0509C23.2919 16.0509 23.0075 15.7665 23.0075 15.4118V14.4883C23.0075 13.0855 22.0776 11.8712 20.7419 11.5357C20.4 11.4494 20.1923 11.1011 20.2786 10.7592C20.3648 10.4173 20.7068 10.2064 21.0551 10.2959C22.9564 10.7752 24.2857 12.4975 24.2857 14.4883ZM2.77049 8.37537C1.82462 7.52857 1.27819 6.31109 1.27819 5.04248C1.27819 3.15075 2.4765 1.45395 4.25958 0.824435C4.59191 0.709398 4.9562 0.881954 5.07443 1.21428C5.19267 1.54662 5.01691 1.9109 4.68458 2.02913C3.40958 2.4797 2.55319 3.69079 2.55319 5.04248C2.55319 5.95 2.93985 6.81917 3.61729 7.42311C3.87932 7.65958 3.90169 8.06221 3.66842 8.32424C3.5406 8.46484 3.36485 8.53834 3.19229 8.53834C3.0421 8.53834 2.88872 8.48402 2.76729 8.37537H2.77049ZM3.54379 12.1013C2.21128 12.4368 1.27819 13.6511 1.27819 15.0539V15.9774C1.27819 16.3321 0.993796 16.6165 0.639097 16.6165C0.284398 16.6165 0 16.3321 0 15.9774V15.0539C0 13.0631 1.32932 11.3408 3.23064 10.8615C3.57575 10.7752 3.92086 10.9829 4.00714 11.3248C4.09342 11.6667 3.88571 12.015 3.54379 12.1013Z" fill="black"/>
</svg>
